<?xml version="1.0" encoding="utf-8"?>
<!-- Generator: Adobe Illustrator 16.0.0, SVG Export Plug-In . SVG Version: 6.00 Build 0)  -->
<!DOCTYPE svg PUBLIC "-//W3C//DTD SVG 1.1//EN" "http://www.w3.org/Graphics/SVG/1.1/DTD/svg11.dtd">
<svg version="1.1" id="Layer_1" xmlns="http://www.w3.org/2000/svg" xmlns:xlink="http://www.w3.org/1999/xlink" x="0px" y="0px"
	 width="150px" height="45px" viewBox="0 0 100 30" enable-background="new 0 0 100 30" xml:space="preserve">
<g>
	<path d="M34.314,11.443c1.738,0,2.604,1.257,2.604,2.513c0,1.265-0.875,2.522-2.594,2.522h-1.055v2.08h-1.798v-7.116H34.314z
		 M34.314,13.122h-1.045v1.758h1.045C35.4,14.89,35.4,13.112,34.314,13.122z"/>
	<path d="M42.382,14.236v1.558H39.5v1.065h3.135v1.699h-4.953v-7.116h4.953v1.689H39.5v1.104H42.382z"/>
	<path d="M46.875,18.559h-1.819v-5.417h-1.891v-1.708h5.598v1.708h-1.889V18.559z"/>
	<path d="M52.883,11.443l1.498,3.478l1.506-3.478h1.799v7.116h-1.809l0.01-2.051l0.111-1.437l-0.061-0.011l-0.934,2.444h-1.236
		l-0.955-2.444l-0.049,0.011l0.119,1.437v2.051h-1.799v-7.116H52.883z"/>
	<path d="M63.516,14.236v1.558h-2.885v1.065h3.133v1.699h-4.953v-7.116h4.953v1.689h-3.133v1.104H63.516z"/>
	<path d="M67.303,18.658c-1.396,0-2.805-0.814-2.805-2.432v-2.451c0-1.608,1.408-2.432,2.834-2.432c0.873,0,1.93,0.372,2.502,1.637
		l-1.467,0.593c-0.482-0.884-2.07-0.683-2.07,0.202v2.451c0,0.854,1.609,1.096,2,0.111l1.566,0.723
		C69.271,18.217,68.197,18.658,67.303,18.658z"/>
	<path d="M74.576,18.559l-0.463-1.428h-1.896l-0.443,1.428h-1.93l2.48-7.116h1.641l2.541,7.116H74.576z M73.189,13.454h-0.049
		l-0.523,2.08h1.066L73.189,13.454z"/>
	<path d="M78.686,11.443l1.719,3.035l0.604,1.427l0.051-0.011c-0.01,0-0.191-1.225-0.201-1.225v-3.227h1.787v7.116h-1.816
		l-1.609-2.805l-0.623-1.427l-0.049,0.011l0.23,1.376v2.845h-1.799v-7.116H78.686z"/>
	<path d="M83.771,18.559v-7.116h1.797v7.116H83.771z"/>
	<path d="M89.326,18.658c-1.395,0-2.803-0.814-2.803-2.432v-2.451c0-1.608,1.408-2.432,2.834-2.432c0.875,0,1.93,0.372,2.502,1.637
		l-1.467,0.593c-0.482-0.884-2.07-0.683-2.07,0.202v2.451c0,0.854,1.607,1.096,2,0.111l1.566,0.723
		C91.297,18.217,90.223,18.658,89.326,18.658z"/>
	<path d="M96.602,18.559l-0.461-1.428h-1.9l-0.441,1.428h-1.928l2.48-7.116h1.639l2.541,7.116H96.602z M95.217,13.454h-0.051
		l-0.523,2.08h1.066L95.217,13.454z"/>
</g>
<g>
	<g>
		<defs>
			<rect id="SVGID_1_" x="-26.57" y="-9.127" width="85.785" height="48.254"/>
		</defs>
		<clipPath id="SVGID_2_">
			<use xlink:href="#SVGID_1_"  overflow="visible"/>
		</clipPath>
		<g clip-path="url(#SVGID_2_)">
			<defs>
				<rect id="SVGID_3_" x="-26.57" y="-9.127" width="85.785" height="48.254"/>
			</defs>
			<clipPath id="SVGID_4_">
				<use xlink:href="#SVGID_3_"  overflow="visible"/>
			</clipPath>
			<path clip-path="url(#SVGID_4_)" fill-rule="evenodd" clip-rule="evenodd" fill="#010002" d="M4.438,14.641v-0.447
				c0.039-0.04,0.017-0.089,0.023-0.134c-0.006-0.045,0.016-0.095-0.023-0.134v-0.268c0.059-0.462,0.074-0.928,0.162-1.389
				c0.249-1.304,0.687-2.538,1.327-3.702c0.6-1.091,1.342-2.072,2.236-2.935c1.052-1.017,2.246-1.826,3.585-2.424
				c1.117-0.498,2.277-0.826,3.49-0.974c0.241-0.029,0.487-0.009,0.727-0.058h0.224c0.03,0.028,0.06,0.028,0.089,0h0.179
				c0.089,0.037,0.179,0.037,0.268,0h0.134c0.104,0.037,0.208,0.037,0.313,0h0.179c0.044,0.034,0.089,0.034,0.134,0h0.134
				c0.493,0.053,0.989,0.067,1.479,0.161c1.305,0.25,2.539,0.689,3.705,1.328c1.12,0.614,2.121,1.38,2.999,2.303
				c0.978,1.027,1.763,2.186,2.345,3.484c0.498,1.109,0.832,2.264,0.983,3.467c0.093,0.738,0.084,1.481,0.069,2.226
				c-0.017,0.764-0.116,1.511-0.288,2.252c-0.317,1.37-0.861,2.645-1.614,3.829c-0.566,0.891-1.229,1.704-2.005,2.417
				c-1.413,1.3-3.034,2.243-4.876,2.803c-1.287,0.391-2.603,0.555-3.943,0.521c-1.61-0.04-3.154-0.383-4.633-1.03
				c-1.1-0.481-2.107-1.108-3.025-1.879c-1.146-0.962-2.083-2.099-2.819-3.402c-0.745-1.317-1.228-2.724-1.46-4.218
				c-0.051-0.33-0.031-0.666-0.095-0.993v-0.224c0.028-0.024,0.022-0.058,0.023-0.089c-0.001-0.031,0.004-0.064-0.023-0.089v-0.134
				C4.474,14.82,4.474,14.73,4.438,14.641"/>
			<path clip-path="url(#SVGID_4_)" fill-rule="evenodd" clip-rule="evenodd" fill="#151415" d="M17.169,2.177
				c-0.104,0.073-0.208,0.069-0.313,0H17.169z"/>
			<path clip-path="url(#SVGID_4_)" fill-rule="evenodd" clip-rule="evenodd" fill="#131313" d="M16.723,2.177
				c-0.089,0.066-0.179,0.07-0.268,0H16.723z"/>
			<path clip-path="url(#SVGID_4_)" fill-rule="evenodd" clip-rule="evenodd" fill="#131313" d="M4.438,14.641
				c0.066,0.089,0.07,0.179,0,0.268V14.641z"/>
			<path clip-path="url(#SVGID_4_)" fill-rule="evenodd" clip-rule="evenodd" fill="#ABABAB" d="M17.482,2.177
				c-0.044,0.08-0.089,0.063-0.134,0H17.482z"/>
			<path clip-path="url(#SVGID_4_)" fill-rule="evenodd" clip-rule="evenodd" fill="#9B9B9B" d="M4.438,13.926
				c0.079,0.024,0.033,0.084,0.038,0.13c-0.01,0.024-0.023,0.024-0.038,0.004V13.926z"/>
			<path clip-path="url(#SVGID_4_)" fill-rule="evenodd" clip-rule="evenodd" fill="#60605F" d="M4.438,14.06
				c0.012-0.003,0.025-0.004,0.038-0.004c0.008,0.052,0.021,0.104-0.038,0.138V14.06z"/>
			<path clip-path="url(#SVGID_4_)" fill-rule="evenodd" clip-rule="evenodd" fill="#A4A4A4" d="M16.276,2.177
				c-0.03,0.061-0.06,0.068-0.089,0H16.276z"/>
			<path clip-path="url(#SVGID_4_)" fill-rule="evenodd" clip-rule="evenodd" fill="#929292" d="M4.438,15.043
				c0.051,0.015,0.045,0.052,0.038,0.091c-0.013,0.018-0.026,0.018-0.038-0.002V15.043z"/>
			<path clip-path="url(#SVGID_4_)" fill-rule="evenodd" clip-rule="evenodd" fill="#B3B3B3" d="M4.438,15.132
				c0.013,0.001,0.025,0.001,0.038,0.002c0.006,0.037,0.02,0.078-0.038,0.087V15.132z"/>
			<path clip-path="url(#SVGID_4_)" fill-rule="evenodd" clip-rule="evenodd" fill="#FFFFFF" d="M17.503,3.653
				c0.305,0,0.61,0,0.916,0c0.323,0,0.592,0.245,0.629,0.562c0.07,0.593,0.147,1.186,0.216,1.779
				c0.009,0.076,0.026,0.102,0.108,0.127c0.626,0.193,1.241,0.419,1.812,0.748c0.094,0.054,0.154,0.045,0.235-0.02
				c0.426-0.341,0.858-0.673,1.283-1.015c0.355-0.286,0.66-0.291,0.994,0.036C24.35,6.509,25,7.156,25.637,7.814
				c0.213,0.22,0.217,0.596-0.021,0.89c-0.348,0.43-0.682,0.872-1.031,1.301c-0.082,0.101-0.075,0.166-0.016,0.271
				c0.321,0.565,0.556,1.167,0.728,1.792c0.032,0.116,0.114,0.106,0.185,0.115c0.542,0.066,1.086,0.128,1.629,0.187
				c0.242,0.026,0.439,0.115,0.575,0.33c0.05,0.08,0.074,0.154,0.074,0.248c-0.002,0.975-0.001,1.951-0.001,2.926
				c0,0.242-0.225,0.518-0.463,0.55c-0.584,0.081-1.168,0.159-1.755,0.22c-0.154,0.016-0.213,0.05-0.263,0.21
				c-0.186,0.596-0.395,1.185-0.721,1.722c-0.062,0.102-0.045,0.159,0.027,0.249c0.356,0.442,0.702,0.894,1.051,1.342
				c0.227,0.291,0.215,0.643-0.039,0.898c-0.639,0.644-1.28,1.285-1.923,1.925c-0.247,0.246-0.605,0.272-0.885,0.06
				c-0.465-0.354-0.923-0.716-1.381-1.077c-0.062-0.049-0.11-0.085-0.193-0.035c-0.577,0.351-1.207,0.576-1.848,0.773
				c-0.089,0.027-0.092,0.069-0.1,0.138c-0.071,0.594-0.146,1.188-0.219,1.78c-0.038,0.309-0.303,0.549-0.612,0.55
				c-0.979,0.002-1.958,0.012-2.931-0.123c-1.064-0.147-2.083-0.439-3.059-0.889c-1.126-0.52-2.124-1.216-3.013-2.085
				c-0.987-0.966-1.759-2.074-2.32-3.33c-0.437-0.978-0.711-2.003-0.835-3.067c-0.056-0.479-0.098-0.959-0.083-1.441
				c0.045-1.468,0.35-2.876,0.949-4.223C7.79,8.56,8.734,7.322,9.929,6.277c1.058-0.925,2.259-1.607,3.599-2.052
				C14.869,3.779,16.106,3.632,17.503,3.653"/>
			<path clip-path="url(#SVGID_4_)" fill-rule="evenodd" clip-rule="evenodd" fill="#010002" d="M16.943,19.508
				c-0.003,0.049-0.006,0.098-0.01,0.146c-0.055,0.05-0.124,0.042-0.19,0.048c-0.705,0.062-1.355,0.63-1.471,1.321
				c-0.178,1.061,0.478,1.882,1.402,2.033c0.086,0.014,0.18,0.001,0.258,0.058c0.026,0.088,0.035,0.146-0.098,0.156
				c-0.438,0.036-0.866-0.031-1.296-0.091c-1.146-0.161-2.222-0.552-3.195-1.159c-1.462-0.911-2.623-2.129-3.386-3.691
				c-0.559-1.145-0.871-2.352-0.906-3.633c-0.032-1.171,0.135-2.307,0.547-3.399c0.404-1.069,0.972-2.048,1.781-2.869
				c0.385-0.391,0.762-0.789,1.206-1.12c0.698-0.521,1.452-0.936,2.264-1.243c0.793-0.299,1.619-0.46,2.462-0.527
				c0.181-0.015,0.366,0.014,0.549,0.021c0.131,0.005,0.083,0.088,0.07,0.157c-0.042,0.038-0.094,0.042-0.146,0.045
				c-0.839,0.049-1.501,0.822-1.529,1.591c-0.033,0.919,0.624,1.65,1.487,1.773c0.065,0.009,0.135,0.003,0.191,0.05
				c0.007,0.188,0.177,0.079,0.254,0.14c-0.053,0.07-0.131,0.065-0.206,0.068c-0.902-0.044-1.743,0.178-2.516,0.629
				c-1.142,0.667-1.956,1.622-2.334,2.899c-0.492,1.654-0.24,3.205,0.817,4.577c0.956,1.242,2.25,1.884,3.818,1.963
				c0.052,0.003,0.104,0.005,0.152,0.03C16.926,19.491,16.935,19.499,16.943,19.508"/>
			<path clip-path="url(#SVGID_4_)" fill-rule="evenodd" clip-rule="evenodd" fill="#010002" d="M16.951,9.323
				c0.079-0.002,0.157-0.004,0.236-0.006c1.099,0.021,2.063,0.415,2.915,1.087c1.058,0.835,1.692,1.937,1.882,3.264
				c0.387,2.702-1.378,5.143-3.917,5.713c-0.37,0.083-0.743,0.138-1.124,0.127l0.006,0.006c-0.04-0.046-0.066-0.1-0.067-0.161
				c-0.002-0.524-0.033-1.049,0.017-1.572c0.043-0.116,0.147-0.108,0.243-0.114c1.898-0.118,3.249-1.803,2.973-3.706
				c-0.145-1.002-0.644-1.776-1.489-2.327c-0.447-0.292-0.949-0.417-1.475-0.462c-0.094-0.008-0.199,0.006-0.249-0.108
				c-0.055-0.526-0.021-1.053-0.02-1.579C16.883,9.423,16.909,9.368,16.951,9.323"/>
			<path clip-path="url(#SVGID_4_)" fill-rule="evenodd" clip-rule="evenodd" fill="#C54545" d="M16.932,23.114
				c-0.842,0.059-1.678-0.676-1.744-1.533c-0.072-0.937,0.439-1.656,1.347-1.904c0.133-0.036,0.264-0.029,0.397-0.022
				C16.95,20.808,16.953,21.961,16.932,23.114"/>
			<path clip-path="url(#SVGID_4_)" fill-rule="evenodd" clip-rule="evenodd" fill="#C54545" d="M16.933,9.177
				C16.078,9.232,15.244,8.433,15.2,7.58c-0.052-1.008,0.659-1.696,1.355-1.842c0.126-0.027,0.249-0.033,0.375-0.021
				c0.004,0.577,0.012,1.153,0.013,1.73S16.937,8.601,16.933,9.177"/>
			<path clip-path="url(#SVGID_4_)" fill-rule="evenodd" clip-rule="evenodd" fill="#FFFFFF" d="M16.95,17.714
				c0,0.6,0,1.2-0.001,1.8c-1.065-0.005-2.048-0.292-2.915-0.91c-1.118-0.796-1.838-1.859-2.096-3.227
				c-0.262-1.391,0.006-2.674,0.787-3.836c0.59-0.878,1.394-1.521,2.392-1.9c0.59-0.224,1.198-0.358,1.834-0.317
				c0,0.601,0.001,1.202,0.001,1.803c0.004,0.026-0.005,0.045-0.028,0.058c-0.326,0.071-0.662,0.057-0.986,0.159
				c-1.279,0.405-2.176,1.633-2.201,2.971c-0.014,0.744,0.146,1.422,0.589,2.013c0.599,0.798,1.392,1.259,2.407,1.294
				c0.067,0.002,0.134-0.001,0.196,0.033C16.952,17.669,16.958,17.688,16.95,17.714"/>
			<path clip-path="url(#SVGID_4_)" fill-rule="evenodd" clip-rule="evenodd" fill="#C54545" d="M12.042,7.718
				c0.974,0.009,1.74,0.809,1.727,1.801c-0.012,0.919-0.838,1.734-1.761,1.716c-1.029-0.02-1.771-0.856-1.737-1.833
				C10.303,8.472,11.084,7.709,12.042,7.718"/>
			<path clip-path="url(#SVGID_4_)" fill-rule="evenodd" clip-rule="evenodd" fill="#C54545" d="M12.024,21.077
				c-0.938,0.033-1.751-0.745-1.78-1.703c-0.03-0.972,0.733-1.762,1.736-1.796c0.901-0.03,1.761,0.661,1.777,1.724
				C13.774,20.324,12.94,21.093,12.024,21.077"/>
			<path clip-path="url(#SVGID_4_)" fill-rule="evenodd" clip-rule="evenodd" fill="#C54545" d="M9.968,12.675
				c0.777-0.072,1.731,0.62,1.74,1.704c0.007,0.977-0.763,1.768-1.712,1.771c-0.957,0.003-1.723-0.748-1.771-1.641
				C8.163,13.379,9.17,12.587,9.968,12.675"/>
			<path clip-path="url(#SVGID_4_)" fill-rule="evenodd" clip-rule="evenodd" fill="#C54545" d="M16.947,11.147l-0.004-0.012
				l0.01-0.009c1.292-0.072,2.577,0.82,3.05,2.119c0.687,1.884-0.381,3.95-2.278,4.403c-0.254,0.062-0.513,0.091-0.774,0.066
				l-0.013-0.008l0.006-0.015c-0.073-0.096-0.07-0.208-0.07-0.319c-0.001-1.969-0.001-3.938,0-5.906
				C16.874,11.354,16.87,11.241,16.947,11.147"/>
			<path clip-path="url(#SVGID_4_)" fill-rule="evenodd" clip-rule="evenodd" fill="#010002" d="M16.947,11.147
				c-0.001,2.182-0.002,4.363-0.003,6.544c-0.652,0.025-1.256-0.144-1.794-0.504c-0.908-0.608-1.42-1.453-1.471-2.563
				c-0.031-0.688,0.076-1.34,0.453-1.923c0.638-0.985,1.531-1.535,2.726-1.545C16.888,11.155,16.917,11.15,16.947,11.147"/>
		</g>
	</g>
</g>
</svg>
