<?xml version="1.0" encoding="utf-8"?>
<!-- Generator: Adobe Illustrator 16.0.0, SVG Export Plug-In . SVG Version: 6.00 Build 0)  -->
<!DOCTYPE svg PUBLIC "-//W3C//DTD SVG 1.1//EN" "http://www.w3.org/Graphics/SVG/1.1/DTD/svg11.dtd">
<svg version="1.1" id="Layer_1" xmlns="http://www.w3.org/2000/svg" xmlns:xlink="http://www.w3.org/1999/xlink" x="0px" y="0px"
	 width="150px" height="45px" viewBox="0 0 150 45" enable-background="new 0 0 150 45" xml:space="preserve">
<g>
	<path fill="#FFFFFF" d="M51.471,17.165c2.607,0,3.906,1.885,3.906,3.77c0,1.897-1.313,3.783-3.891,3.783h-1.583v3.12h-2.697V17.163
		h4.265V17.165z M51.471,19.683h-1.568v2.637h1.568C53.1,22.335,53.1,19.668,51.471,19.683z"/>
	<path fill="#FFFFFF" d="M63.573,21.354v2.337H59.25v1.598h4.703v2.548h-7.43V17.163h7.43v2.533H59.25v1.656h4.323V21.354z"/>
	<path fill="#FFFFFF" d="M70.313,27.838h-2.729v-8.125h-2.836v-2.562h8.397v2.562h-2.833v8.125H70.313z"/>
	<path fill="#FFFFFF" d="M79.324,17.165l2.247,5.217l2.259-5.217h2.699v10.673h-2.714l0.015-3.076l0.167-2.155l-0.092-0.017
		l-1.401,3.666H80.65l-1.433-3.666l-0.073,0.017l0.179,2.155v3.076h-2.698V17.165H79.324z"/>
	<path fill="#FFFFFF" d="M95.273,21.354v2.337h-4.327v1.598h4.7v2.548h-7.43V17.163h7.43v2.533h-4.7v1.656h4.327V21.354z"/>
	<path fill="#FFFFFF" d="M100.955,27.986c-2.095,0-4.208-1.221-4.208-3.647v-3.676c0-2.412,2.112-3.648,4.251-3.648
		c1.31,0,2.895,0.558,3.753,2.455l-2.2,0.89c-0.723-1.326-3.105-1.024-3.105,0.303v3.676c0,1.281,2.414,1.644,3,0.167l2.35,1.084
		C103.906,27.326,102.295,27.986,100.955,27.986z"/>
	<path fill="#FFFFFF" d="M111.863,27.838l-0.693-2.142h-2.844l-0.665,2.142h-2.896l3.721-10.673h2.461l3.812,10.673H111.863z
		 M109.783,20.181h-0.073l-0.784,3.12h1.599L109.783,20.181z"/>
	<path fill="#FFFFFF" d="M118.029,17.165l2.578,4.552l0.906,2.141l0.076-0.017c-0.015,0-0.286-1.837-0.301-1.837v-4.84h2.68v10.674
		h-2.724l-2.413-4.208l-0.936-2.14l-0.072,0.016l0.344,2.064v4.268h-2.697V17.163h2.559V17.165z"/>
	<path fill="#FFFFFF" d="M125.656,27.838V17.165h2.695v10.673H125.656z"/>
	<path fill="#FFFFFF" d="M133.988,27.986c-2.092,0-4.203-1.221-4.203-3.647v-3.676c0-2.412,2.111-3.648,4.25-3.648
		c1.313,0,2.896,0.558,3.754,2.455l-2.201,0.89c-0.723-1.326-3.105-1.024-3.105,0.303v3.676c0,1.281,2.411,1.644,3,0.167l2.35,1.084
		C136.945,27.326,135.334,27.986,133.988,27.986z"/>
	<path fill="#FFFFFF" d="M144.902,27.838l-0.691-2.142h-2.85l-0.661,2.142h-2.892l3.719-10.673h2.459l3.812,10.673H144.902z
		 M142.826,20.181h-0.077l-0.784,3.12h1.599L142.826,20.181z"/>
</g>
<g>
	<g>
		<g>
			<defs>
				<rect id="SVGID_1_" x="-39.855" y="-13.69" width="128.677" height="72.381"/>
			</defs>
			<clipPath id="SVGID_2_">
				<use xlink:href="#SVGID_1_"  overflow="visible"/>
			</clipPath>
			<g clip-path="url(#SVGID_2_)">
				<g>
					<defs>
						<rect id="SVGID_3_" x="-39.855" y="-13.69" width="128.677" height="72.381"/>
					</defs>
					<defs>
						<rect id="SVGID_4_" x="-39.855" y="-13.69" width="128.677" height="72.381"/>
					</defs>
					<defs>
						<rect id="SVGID_5_" x="-39.855" y="-13.69" width="128.677" height="72.381"/>
					</defs>
					<defs>
						<rect id="SVGID_6_" x="-39.855" y="-13.69" width="128.677" height="72.381"/>
					</defs>
					<defs>
						<rect id="SVGID_7_" x="-39.855" y="-13.69" width="128.677" height="72.381"/>
					</defs>
					<defs>
						<rect id="SVGID_8_" x="-39.855" y="-13.69" width="128.677" height="72.381"/>
					</defs>
					<defs>
						<rect id="SVGID_9_" x="-39.855" y="-13.69" width="128.677" height="72.381"/>
					</defs>
					<defs>
						<rect id="SVGID_10_" x="-39.855" y="-13.69" width="128.677" height="72.381"/>
					</defs>
					<defs>
						<rect id="SVGID_11_" x="-39.855" y="-13.69" width="128.677" height="72.381"/>
					</defs>
					<defs>
						<rect id="SVGID_12_" x="-39.855" y="-13.69" width="128.677" height="72.381"/>
					</defs>
					<defs>
						<rect id="SVGID_13_" x="-39.855" y="-13.69" width="128.677" height="72.381"/>
					</defs>
					<defs>
						<rect id="SVGID_14_" x="-39.855" y="-13.69" width="128.677" height="72.381"/>
					</defs>
					<defs>
						<rect id="SVGID_15_" x="-39.855" y="-13.69" width="128.677" height="72.381"/>
					</defs>
					<defs>
						<rect id="SVGID_16_" x="-39.855" y="-13.69" width="128.677" height="72.381"/>
					</defs>
					<defs>
						<rect id="SVGID_17_" x="-39.855" y="-13.69" width="128.677" height="72.381"/>
					</defs>
					<defs>
						<rect id="SVGID_18_" x="-39.855" y="-13.69" width="128.677" height="72.381"/>
					</defs>
					<defs>
						<rect id="SVGID_19_" x="-39.855" y="-13.69" width="128.677" height="72.381"/>
					</defs>
					<defs>
						<rect id="SVGID_20_" x="-39.855" y="-13.69" width="128.677" height="72.381"/>
					</defs>
					<defs>
						<rect id="SVGID_21_" x="-39.855" y="-13.69" width="128.677" height="72.381"/>
					</defs>
					<defs>
						<rect id="SVGID_22_" x="-39.855" y="-13.69" width="128.677" height="72.381"/>
					</defs>
					<defs>
						<rect id="SVGID_23_" x="-39.855" y="-13.69" width="128.677" height="72.381"/>
					</defs>
					<clipPath id="SVGID_24_">
						<use xlink:href="#SVGID_3_"  overflow="visible"/>
					</clipPath>
					<clipPath id="SVGID_25_" clip-path="url(#SVGID_24_)">
						<use xlink:href="#SVGID_4_"  overflow="visible"/>
					</clipPath>
					<clipPath id="SVGID_26_" clip-path="url(#SVGID_25_)">
						<use xlink:href="#SVGID_5_"  overflow="visible"/>
					</clipPath>
					<clipPath id="SVGID_27_" clip-path="url(#SVGID_26_)">
						<use xlink:href="#SVGID_6_"  overflow="visible"/>
					</clipPath>
					<clipPath id="SVGID_28_" clip-path="url(#SVGID_27_)">
						<use xlink:href="#SVGID_7_"  overflow="visible"/>
					</clipPath>
					<clipPath id="SVGID_29_" clip-path="url(#SVGID_28_)">
						<use xlink:href="#SVGID_8_"  overflow="visible"/>
					</clipPath>
					<clipPath id="SVGID_30_" clip-path="url(#SVGID_29_)">
						<use xlink:href="#SVGID_9_"  overflow="visible"/>
					</clipPath>
					<clipPath id="SVGID_31_" clip-path="url(#SVGID_30_)">
						<use xlink:href="#SVGID_10_"  overflow="visible"/>
					</clipPath>
					<clipPath id="SVGID_32_" clip-path="url(#SVGID_31_)">
						<use xlink:href="#SVGID_11_"  overflow="visible"/>
					</clipPath>
					<clipPath id="SVGID_33_" clip-path="url(#SVGID_32_)">
						<use xlink:href="#SVGID_12_"  overflow="visible"/>
					</clipPath>
					<clipPath id="SVGID_34_" clip-path="url(#SVGID_33_)">
						<use xlink:href="#SVGID_13_"  overflow="visible"/>
					</clipPath>
					<clipPath id="SVGID_35_" clip-path="url(#SVGID_34_)">
						<use xlink:href="#SVGID_14_"  overflow="visible"/>
					</clipPath>
					<clipPath id="SVGID_36_" clip-path="url(#SVGID_35_)">
						<use xlink:href="#SVGID_15_"  overflow="visible"/>
					</clipPath>
					<clipPath id="SVGID_37_" clip-path="url(#SVGID_36_)">
						<use xlink:href="#SVGID_16_"  overflow="visible"/>
					</clipPath>
					<clipPath id="SVGID_38_" clip-path="url(#SVGID_37_)">
						<use xlink:href="#SVGID_17_"  overflow="visible"/>
					</clipPath>
					<clipPath id="SVGID_39_" clip-path="url(#SVGID_38_)">
						<use xlink:href="#SVGID_18_"  overflow="visible"/>
					</clipPath>
					<clipPath id="SVGID_40_" clip-path="url(#SVGID_39_)">
						<use xlink:href="#SVGID_19_"  overflow="visible"/>
					</clipPath>
					<clipPath id="SVGID_41_" clip-path="url(#SVGID_40_)">
						<use xlink:href="#SVGID_20_"  overflow="visible"/>
					</clipPath>
					<clipPath id="SVGID_42_" clip-path="url(#SVGID_41_)">
						<use xlink:href="#SVGID_21_"  overflow="visible"/>
					</clipPath>
					<clipPath id="SVGID_43_" clip-path="url(#SVGID_42_)">
						<use xlink:href="#SVGID_22_"  overflow="visible"/>
					</clipPath>
					<clipPath id="SVGID_44_" clip-path="url(#SVGID_43_)">
						<use xlink:href="#SVGID_23_"  overflow="visible"/>
					</clipPath>
					<path clip-path="url(#SVGID_44_)" fill="#010002" d="M6.657,21.961v-0.67c0.058-0.06,0.025-0.134,0.034-0.201
						c-0.009-0.067,0.024-0.143-0.034-0.201v-0.402c0.088-0.693,0.111-1.392,0.243-2.083c0.374-1.956,1.031-3.807,1.991-5.553
						c0.9-1.637,2.013-3.108,3.354-4.402c1.578-1.526,3.369-2.739,5.377-3.636c1.675-0.747,3.416-1.239,5.235-1.461
						c0.361-0.043,0.73-0.014,1.09-0.087h0.336c0.045,0.042,0.09,0.042,0.133,0h0.269c0.133,0.055,0.269,0.055,0.402,0h0.201
						c0.156,0.055,0.312,0.055,0.469,0h0.269c0.066,0.051,0.134,0.051,0.201,0h0.201c0.739,0.08,1.483,0.1,2.218,0.241
						c1.958,0.375,3.809,1.034,5.558,1.992c1.68,0.921,3.182,2.07,4.499,3.455c1.467,1.541,2.645,3.279,3.518,5.226
						c0.747,1.664,1.248,3.396,1.474,5.201c0.14,1.107,0.126,2.222,0.104,3.339c-0.025,1.146-0.174,2.267-0.432,3.378
						c-0.476,2.055-1.292,3.967-2.421,5.743c-0.849,1.337-1.843,2.556-3.007,3.626c-2.12,1.949-4.551,3.364-7.314,4.204
						c-1.931,0.587-3.904,0.833-5.915,0.782c-2.415-0.061-4.731-0.575-6.95-1.546c-1.65-0.722-3.16-1.661-4.537-2.818
						c-1.719-1.442-3.125-3.148-4.229-5.103c-1.118-1.977-1.842-4.086-2.19-6.327c-0.077-0.495-0.047-0.999-0.143-1.489v-0.336
						c0.042-0.036,0.033-0.087,0.034-0.133c-0.001-0.047,0.006-0.096-0.034-0.134v-0.201C6.711,22.23,6.711,22.095,6.657,21.961"/>
					<path clip-path="url(#SVGID_44_)" fill="#151415" d="M25.753,3.266c-0.156,0.109-0.312,0.104-0.469,0H25.753z"/>
					<path clip-path="url(#SVGID_44_)" fill="#131313" d="M25.084,3.266c-0.133,0.099-0.269,0.105-0.402,0H25.084z"/>
					<path clip-path="url(#SVGID_44_)" fill="#131313" d="M6.657,21.961c0.099,0.133,0.105,0.269,0,0.402V21.961z"/>
					<path clip-path="url(#SVGID_44_)" fill="#ABABAB" d="M26.223,3.266c-0.066,0.12-0.134,0.094-0.201,0H26.223z"/>
					<path clip-path="url(#SVGID_44_)" fill="#9B9B9B" d="M6.657,20.889c0.118,0.036,0.049,0.126,0.057,0.195
						C6.699,21.12,6.68,21.12,6.657,21.09V20.889z"/>
					<path clip-path="url(#SVGID_44_)" fill="#60605F" d="M6.657,21.09c0.018-0.004,0.037-0.006,0.057-0.006
						c0.012,0.078,0.032,0.156-0.057,0.207V21.09z"/>
					<path clip-path="url(#SVGID_44_)" fill="#A4A4A4" d="M24.414,3.266c-0.045,0.091-0.09,0.102-0.134,0H24.414z"/>
					<path clip-path="url(#SVGID_44_)" fill="#929292" d="M6.657,22.564c0.076,0.022,0.067,0.078,0.057,0.137
						c-0.02,0.027-0.039,0.027-0.057-0.003V22.564z"/>
					<path clip-path="url(#SVGID_44_)" fill="#B3B3B3" d="M6.657,22.698C6.676,22.7,6.694,22.7,6.714,22.701
						c0.009,0.055,0.03,0.117-0.057,0.13V22.698z"/>
					<path clip-path="url(#SVGID_44_)" fill="#FFFFFF" d="M26.254,5.479c0.458,0,0.915,0,1.374,0c0.484,0,0.888,0.368,0.943,0.843
						c0.105,0.89,0.221,1.779,0.324,2.669c0.014,0.114,0.039,0.153,0.162,0.19c0.939,0.29,1.861,0.628,2.718,1.122
						c0.141,0.081,0.231,0.067,0.353-0.03c0.639-0.511,1.287-1.009,1.925-1.522c0.532-0.429,0.99-0.437,1.491,0.054
						c0.981,0.958,1.956,1.929,2.912,2.916c0.319,0.33,0.325,0.894-0.032,1.335c-0.522,0.645-1.023,1.308-1.546,1.951
						c-0.123,0.152-0.112,0.249-0.024,0.407c0.481,0.848,0.834,1.75,1.092,2.688c0.048,0.174,0.171,0.159,0.278,0.172
						c0.813,0.099,1.629,0.192,2.443,0.281c0.363,0.039,0.659,0.172,0.862,0.495c0.075,0.12,0.111,0.231,0.111,0.372
						c-0.003,1.463-0.001,2.927-0.001,4.389c0,0.363-0.338,0.777-0.695,0.825c-0.876,0.122-1.752,0.239-2.632,0.33
						c-0.231,0.024-0.319,0.075-0.395,0.315c-0.279,0.894-0.592,1.777-1.082,2.583c-0.093,0.153-0.067,0.238,0.041,0.373
						c0.534,0.663,1.053,1.341,1.577,2.013c0.34,0.438,0.322,0.965-0.059,1.348c-0.958,0.966-1.92,1.928-2.885,2.887
						c-0.37,0.369-0.907,0.408-1.327,0.091c-0.698-0.531-1.385-1.074-2.072-1.616c-0.093-0.073-0.165-0.127-0.29-0.052
						c-0.865,0.526-1.81,0.864-2.772,1.159c-0.133,0.041-0.138,0.104-0.15,0.207c-0.106,0.891-0.219,1.782-0.329,2.67
						c-0.057,0.464-0.454,0.824-0.918,0.825c-1.468,0.003-2.937,0.019-4.396-0.185c-1.596-0.221-3.125-0.658-4.588-1.334
						c-1.689-0.779-3.186-1.823-4.52-3.127c-1.48-1.449-2.639-3.111-3.48-4.995c-0.655-1.467-1.066-3.005-1.252-4.601
						c-0.084-0.718-0.147-1.438-0.125-2.161c0.067-2.202,0.525-4.314,1.423-6.335c0.971-2.191,2.387-4.048,4.179-5.616
						c1.587-1.388,3.389-2.411,5.398-3.078C22.304,5.668,24.159,5.448,26.254,5.479"/>
					<path clip-path="url(#SVGID_44_)" fill="#010002" d="M25.415,29.262c-0.004,0.074-0.009,0.147-0.015,0.219
						c-0.083,0.076-0.186,0.063-0.285,0.072c-1.057,0.094-2.032,0.945-2.206,1.982c-0.267,1.591,0.717,2.822,2.103,3.049
						c0.129,0.021,0.27,0.002,0.387,0.087c0.039,0.132,0.053,0.22-0.147,0.234c-0.657,0.054-1.299-0.047-1.944-0.137
						c-1.719-0.241-3.333-0.828-4.792-1.738c-2.193-1.366-3.935-3.194-5.079-5.536c-0.838-1.719-1.307-3.529-1.359-5.45
						c-0.048-1.756,0.202-3.46,0.82-5.099c0.606-1.604,1.458-3.072,2.671-4.303c0.578-0.586,1.143-1.184,1.809-1.68
						c1.047-0.781,2.178-1.404,3.396-1.864c1.189-0.449,2.429-0.69,3.693-0.791c0.271-0.022,0.549,0.021,0.824,0.031
						c0.196,0.008,0.125,0.132,0.105,0.236c-0.063,0.057-0.141,0.063-0.219,0.067c-1.258,0.073-2.251,1.233-2.293,2.386
						c-0.049,1.378,0.936,2.475,2.23,2.66c0.098,0.014,0.203,0.004,0.287,0.075c0.011,0.282,0.266,0.118,0.381,0.21
						c-0.079,0.105-0.196,0.097-0.309,0.102c-1.353-0.066-2.615,0.267-3.774,0.943c-1.713,1-2.934,2.433-3.501,4.349
						c-0.738,2.481-0.36,4.807,1.226,6.866c1.434,1.863,3.375,2.826,5.727,2.944c0.078,0.005,0.156,0.007,0.228,0.045
						C25.389,29.236,25.402,29.248,25.415,29.262"/>
					<path clip-path="url(#SVGID_44_)" fill="#010002" d="M25.426,13.984c0.119-0.003,0.236-0.006,0.354-0.009
						c1.649,0.031,3.095,0.623,4.373,1.63c1.587,1.252,2.538,2.906,2.823,4.896c0.581,4.053-2.067,7.715-5.875,8.569
						c-0.555,0.124-1.115,0.207-1.686,0.19l0.009,0.01c-0.06-0.069-0.099-0.15-0.1-0.242c-0.003-0.785-0.05-1.573,0.025-2.357
						c0.064-0.174,0.22-0.162,0.364-0.172c2.847-0.177,4.874-2.704,4.459-5.559c-0.217-1.503-0.966-2.664-2.233-3.49
						c-0.67-0.438-1.423-0.625-2.212-0.693c-0.141-0.012-0.298,0.009-0.374-0.162c-0.083-0.789-0.032-1.58-0.03-2.369
						C25.325,14.135,25.363,14.052,25.426,13.984"/>
					<path clip-path="url(#SVGID_44_)" fill="#C54545" d="M25.398,34.671c-1.263,0.089-2.517-1.014-2.616-2.3
						c-0.108-1.405,0.658-2.483,2.021-2.855c0.199-0.055,0.396-0.043,0.595-0.033C25.425,31.212,25.43,32.941,25.398,34.671"/>
					<path clip-path="url(#SVGID_44_)" fill="#C54545" d="M25.399,13.766c-1.282,0.083-2.533-1.116-2.6-2.396
						c-0.078-1.512,0.989-2.544,2.033-2.763c0.189-0.041,0.374-0.049,0.563-0.031c0.006,0.865,0.018,1.729,0.02,2.595
						C25.416,12.036,25.405,12.901,25.399,13.766"/>
					<path clip-path="url(#SVGID_44_)" fill="#FFFFFF" d="M25.425,26.57c0,0.9,0,1.801-0.001,2.701
						c-1.597-0.008-3.072-0.438-4.373-1.365c-1.677-1.194-2.757-2.789-3.144-4.841c-0.393-2.086,0.009-4.011,1.18-5.754
						c0.885-1.317,2.091-2.281,3.588-2.85c0.885-0.336,1.797-0.537,2.751-0.476c0,0.902,0.002,1.803,0.002,2.705
						c0.006,0.039-0.008,0.067-0.042,0.087c-0.489,0.106-0.993,0.085-1.479,0.239c-1.919,0.607-3.264,2.449-3.302,4.457
						c-0.021,1.116,0.219,2.133,0.883,3.02c0.899,1.197,2.088,1.889,3.611,1.941c0.101,0.002,0.201-0.002,0.294,0.049
						C25.428,26.504,25.437,26.532,25.425,26.57"/>
					<path clip-path="url(#SVGID_44_)" fill="#C54545" d="M18.063,11.577c1.461,0.013,2.61,1.213,2.59,2.701
						c-0.018,1.379-1.257,2.601-2.641,2.574c-1.543-0.03-2.657-1.284-2.606-2.75C15.455,12.708,16.626,11.563,18.063,11.577"/>
					<path clip-path="url(#SVGID_44_)" fill="#C54545" d="M18.036,31.615c-1.407,0.05-2.626-1.117-2.67-2.555
						c-0.045-1.457,1.099-2.643,2.604-2.693c1.351-0.045,2.641,0.991,2.666,2.586C20.661,30.486,19.41,31.64,18.036,31.615"/>
					<path clip-path="url(#SVGID_44_)" fill="#C54545" d="M14.952,19.013c1.166-0.108,2.596,0.93,2.61,2.556
						c0.01,1.466-1.145,2.652-2.568,2.656c-1.436,0.005-2.584-1.121-2.657-2.461C12.245,20.068,13.755,18.88,14.952,19.013"/>
					<path clip-path="url(#SVGID_44_)" fill="#C54545" d="M25.42,16.721l-0.006-0.018l0.015-0.014
						c1.938-0.108,3.865,1.23,4.575,3.179c1.031,2.826-0.571,5.925-3.417,6.605c-0.381,0.092-0.77,0.136-1.161,0.098l-0.019-0.012
						l0.009-0.021c-0.109-0.145-0.105-0.313-0.105-0.479c-0.001-2.954-0.001-5.908,0-8.859
						C25.311,17.031,25.305,16.861,25.42,16.721"/>
					<path clip-path="url(#SVGID_44_)" fill="#010002" d="M25.42,16.721c-0.001,3.273-0.003,6.545-0.004,9.816
						c-0.978,0.037-1.884-0.217-2.691-0.757c-1.362-0.911-2.13-2.179-2.207-3.844c-0.046-1.032,0.114-2.01,0.68-2.884
						c0.957-1.478,2.296-2.303,4.089-2.318C25.332,16.732,25.375,16.725,25.42,16.721"/>
				</g>
			</g>
		</g>
	</g>
</g>
</svg>
