<?xml version="1.0" encoding="utf-8"?>
<!DOCTYPE svg PUBLIC "-//W3C//DTD SVG 1.1//EN" "http://www.w3.org/Graphics/SVG/1.1/DTD/svg11.dtd">
<svg version="1.1" id="Layer_1" xmlns="http://www.w3.org/2000/svg" xmlns:xlink="http://www.w3.org/1999/xlink" x="0px" y="0px" viewBox="0 0 300 350" enable-background="new 0 0 300 350" xml:space="preserve">
<g>
	<g>
		<g>
			<defs>
				<rect id="SVGID_1_" x="-149.378" y="6.6" width="598.756" height="336.801"/>
			</defs>
			<clipPath id="SVGID_2_">
				<use xlink:href="#SVGID_1_"  overflow="visible"/>
			</clipPath>
			<g clip-path="url(#SVGID_2_)">
				<g>
					<defs>
						<rect id="SVGID_3_" x="-149.378" y="6.6" width="598.756" height="336.801"/>
					</defs>
					<defs>
						<rect id="SVGID_4_" x="-149.378" y="6.6" width="598.756" height="336.801"/>
					</defs>
					<defs>
						<rect id="SVGID_5_" x="-149.378" y="6.6" width="598.756" height="336.801"/>
					</defs>
					<defs>
						<rect id="SVGID_6_" x="-149.378" y="6.6" width="598.756" height="336.801"/>
					</defs>
					<defs>
						<rect id="SVGID_7_" x="-149.378" y="6.6" width="598.756" height="336.801"/>
					</defs>
					<defs>
						<rect id="SVGID_8_" x="-149.378" y="6.6" width="598.756" height="336.801"/>
					</defs>
					<defs>
						<rect id="SVGID_9_" x="-149.378" y="6.6" width="598.756" height="336.801"/>
					</defs>
					<defs>
						<rect id="SVGID_10_" x="-149.378" y="6.6" width="598.756" height="336.801"/>
					</defs>
					<defs>
						<rect id="SVGID_11_" x="-149.378" y="6.6" width="598.756" height="336.801"/>
					</defs>
					<defs>
						<rect id="SVGID_12_" x="-149.378" y="6.6" width="598.756" height="336.801"/>
					</defs>
					<defs>
						<rect id="SVGID_13_" x="-149.378" y="6.6" width="598.756" height="336.801"/>
					</defs>
					<defs>
						<rect id="SVGID_14_" x="-149.378" y="6.6" width="598.756" height="336.801"/>
					</defs>
					<defs>
						<rect id="SVGID_15_" x="-149.378" y="6.6" width="598.756" height="336.801"/>
					</defs>
					<defs>
						<rect id="SVGID_16_" x="-149.378" y="6.6" width="598.756" height="336.801"/>
					</defs>
					<defs>
						<rect id="SVGID_17_" x="-149.378" y="6.6" width="598.756" height="336.801"/>
					</defs>
					<defs>
						<rect id="SVGID_18_" x="-149.378" y="6.6" width="598.756" height="336.801"/>
					</defs>
					<defs>
						<rect id="SVGID_19_" x="-149.378" y="6.6" width="598.756" height="336.801"/>
					</defs>
					<defs>
						<rect id="SVGID_20_" x="-149.378" y="6.6" width="598.756" height="336.801"/>
					</defs>
					<defs>
						<rect id="SVGID_21_" x="-149.378" y="6.6" width="598.756" height="336.801"/>
					</defs>
					<defs>
						<rect id="SVGID_22_" x="-149.378" y="6.6" width="598.756" height="336.801"/>
					</defs>
					<defs>
						<rect id="SVGID_23_" x="-149.378" y="6.6" width="598.756" height="336.801"/>
					</defs>
					<clipPath id="SVGID_24_">
						<use xlink:href="#SVGID_3_"  overflow="visible"/>
					</clipPath>
					<clipPath id="SVGID_25_" clip-path="url(#SVGID_24_)">
						<use xlink:href="#SVGID_4_"  overflow="visible"/>
					</clipPath>
					<clipPath id="SVGID_26_" clip-path="url(#SVGID_25_)">
						<use xlink:href="#SVGID_5_"  overflow="visible"/>
					</clipPath>
					<clipPath id="SVGID_27_" clip-path="url(#SVGID_26_)">
						<use xlink:href="#SVGID_6_"  overflow="visible"/>
					</clipPath>
					<clipPath id="SVGID_28_" clip-path="url(#SVGID_27_)">
						<use xlink:href="#SVGID_7_"  overflow="visible"/>
					</clipPath>
					<clipPath id="SVGID_29_" clip-path="url(#SVGID_28_)">
						<use xlink:href="#SVGID_8_"  overflow="visible"/>
					</clipPath>
					<clipPath id="SVGID_30_" clip-path="url(#SVGID_29_)">
						<use xlink:href="#SVGID_9_"  overflow="visible"/>
					</clipPath>
					<clipPath id="SVGID_31_" clip-path="url(#SVGID_30_)">
						<use xlink:href="#SVGID_10_"  overflow="visible"/>
					</clipPath>
					<clipPath id="SVGID_32_" clip-path="url(#SVGID_31_)">
						<use xlink:href="#SVGID_11_"  overflow="visible"/>
					</clipPath>
					<clipPath id="SVGID_33_" clip-path="url(#SVGID_32_)">
						<use xlink:href="#SVGID_12_"  overflow="visible"/>
					</clipPath>
					<clipPath id="SVGID_34_" clip-path="url(#SVGID_33_)">
						<use xlink:href="#SVGID_13_"  overflow="visible"/>
					</clipPath>
					<clipPath id="SVGID_35_" clip-path="url(#SVGID_34_)">
						<use xlink:href="#SVGID_14_"  overflow="visible"/>
					</clipPath>
					<clipPath id="SVGID_36_" clip-path="url(#SVGID_35_)">
						<use xlink:href="#SVGID_15_"  overflow="visible"/>
					</clipPath>
					<clipPath id="SVGID_37_" clip-path="url(#SVGID_36_)">
						<use xlink:href="#SVGID_16_"  overflow="visible"/>
					</clipPath>
					<clipPath id="SVGID_38_" clip-path="url(#SVGID_37_)">
						<use xlink:href="#SVGID_17_"  overflow="visible"/>
					</clipPath>
					<clipPath id="SVGID_39_" clip-path="url(#SVGID_38_)">
						<use xlink:href="#SVGID_18_"  overflow="visible"/>
					</clipPath>
					<clipPath id="SVGID_40_" clip-path="url(#SVGID_39_)">
						<use xlink:href="#SVGID_19_"  overflow="visible"/>
					</clipPath>
					<clipPath id="SVGID_41_" clip-path="url(#SVGID_40_)">
						<use xlink:href="#SVGID_20_"  overflow="visible"/>
					</clipPath>
					<clipPath id="SVGID_42_" clip-path="url(#SVGID_41_)">
						<use xlink:href="#SVGID_21_"  overflow="visible"/>
					</clipPath>
					<clipPath id="SVGID_43_" clip-path="url(#SVGID_42_)">
						<use xlink:href="#SVGID_22_"  overflow="visible"/>
					</clipPath>
					<clipPath id="SVGID_44_" clip-path="url(#SVGID_43_)">
						<use xlink:href="#SVGID_23_"  overflow="visible"/>
					</clipPath>
					<path clip-path="url(#SVGID_44_)" fill="#050206" d="M67.049,172.495v-3.12c0.271-0.28,0.118-0.626,0.16-0.938
						c-0.042-0.313,0.111-0.662-0.16-0.932v-1.873c0.412-3.224,0.517-6.478,1.128-9.695c1.74-9.102,4.797-17.713,9.266-25.838
						c4.186-7.615,9.363-14.46,15.606-20.484c7.341-7.1,15.675-12.746,25.021-16.918c7.798-3.478,15.892-5.764,24.354-6.798
						c1.681-0.205,3.399-0.065,5.08-0.406h1.562c0.211,0.195,0.42,0.195,0.619,0h1.254c0.619,0.257,1.246,0.257,1.863,0h0.937
						c0.727,0.257,1.454,0.257,2.19,0h1.245c0.31,0.237,0.627,0.237,0.937,0h0.935c3.445,0.372,6.908,0.466,10.326,1.124
						c9.104,1.743,17.72,4.808,25.855,9.269c7.815,4.285,14.804,9.631,20.938,16.075c6.826,7.168,12.304,15.258,16.367,24.316
						c3.471,7.739,5.808,15.804,6.853,24.2c0.654,5.151,0.591,10.337,0.482,15.538c-0.117,5.328-0.809,10.545-2.009,15.717
						c-2.209,9.559-6.007,18.457-11.261,26.729c-3.953,6.215-8.578,11.885-13.996,16.867c-9.858,9.07-21.174,15.66-34.033,19.564
						c-8.979,2.729-18.168,3.873-27.521,3.637c-11.24-0.283-22.013-2.672-32.337-7.189c-7.677-3.361-14.705-7.732-21.113-13.115
						c-7.998-6.715-14.538-14.648-19.673-23.744c-5.201-9.197-8.574-19.012-10.191-29.438c-0.357-2.309-0.218-4.652-0.663-6.936
						v-1.563c0.194-0.168,0.153-0.402,0.16-0.623c-0.006-0.217,0.028-0.445-0.16-0.619v-0.935
						C67.3,173.741,67.3,173.114,67.049,172.495"/>
					<path clip-path="url(#SVGID_44_)" fill="#151315" d="M155.902,85.498c-0.719,0.509-1.446,0.483-2.183,0H155.902z"/>
					<path clip-path="url(#SVGID_44_)" fill="#131213" d="M152.794,85.498c-0.616,0.46-1.254,0.489-1.871,0H152.794z"/>
					<path clip-path="url(#SVGID_44_)" fill="#131213" d="M67.049,172.495c0.46,0.619,0.488,1.246,0,1.87V172.495z"/>
					<path clip-path="url(#SVGID_44_)" fill="#ABABAB" d="M158.093,85.498c-0.309,0.561-0.626,0.439-0.936,0H158.093z"/>
					<path clip-path="url(#SVGID_44_)" fill="#9B9B9B" d="M67.049,167.504c0.551,0.164,0.23,0.585,0.263,0.905
						c-0.066,0.169-0.158,0.169-0.263,0.026V167.504z"/>
					<path clip-path="url(#SVGID_44_)" fill="#60605F" d="M67.049,168.436c0.083-0.02,0.175-0.026,0.263-0.026
						c0.057,0.361,0.148,0.728-0.263,0.965V168.436z"/>
					<path clip-path="url(#SVGID_44_)" fill="#A4A4A5" d="M149.678,85.498c-0.21,0.426-0.419,0.477-0.628,0H149.678z"/>
					<path clip-path="url(#SVGID_44_)" fill="#929292" d="M67.049,175.299c0.356,0.104,0.314,0.362,0.263,0.634
						c-0.088,0.127-0.18,0.127-0.263-0.015V175.299z"/>
					<path clip-path="url(#SVGID_44_)" fill="#B3B3B3" d="M67.049,175.918c0.09,0.01,0.175,0.01,0.263,0.015
						c0.045,0.258,0.143,0.545-0.263,0.608V175.918z"/>
					<path clip-path="url(#SVGID_44_)" fill="#FFFFFF" d="M158.238,95.8c2.126,0,4.253,0,6.39,0c2.253,0,4.134,1.71,4.39,3.922
						c0.489,4.139,1.026,8.278,1.508,12.417c0.063,0.529,0.183,0.712,0.753,0.885c4.372,1.35,8.662,2.926,12.651,5.223
						c0.653,0.378,1.072,0.314,1.636-0.142c2.981-2.378,5.989-4.695,8.963-7.083c2.47-1.995,4.606-2.031,6.935,0.254
						c4.562,4.458,9.104,8.973,13.548,13.567c1.481,1.534,1.511,4.161-0.144,6.211c-2.437,3.001-4.765,6.086-7.197,9.08
						c-0.574,0.706-0.528,1.158-0.11,1.892c2.236,3.944,3.879,8.146,5.08,12.506c0.219,0.811,0.791,0.74,1.289,0.804
						c3.782,0.46,7.58,0.894,11.371,1.307c1.69,0.18,3.062,0.802,4.008,2.302c0.354,0.559,0.519,1.075,0.519,1.73
						c-0.01,6.806,0,13.618,0,20.418c0,1.691-1.574,3.617-3.237,3.844c-4.078,0.566-8.152,1.111-12.249,1.537
						c-1.073,0.109-1.481,0.346-1.838,1.463c-1.299,4.162-2.752,8.271-5.033,12.025c-0.428,0.707-0.31,1.105,0.191,1.734
						c2.489,3.08,4.897,6.234,7.334,9.361c1.59,2.035,1.498,4.488-0.272,6.271c-4.455,4.498-8.935,8.969-13.425,13.43
						c-1.718,1.717-4.218,1.9-6.17,0.428c-3.244-2.473-6.443-4.998-9.644-7.523c-0.427-0.336-0.763-0.592-1.345-0.238
						c-4.024,2.447-8.425,4.018-12.896,5.391c-0.627,0.191-0.644,0.48-0.698,0.963c-0.501,4.145-1.02,8.299-1.527,12.424
						c-0.265,2.164-2.119,3.834-4.272,3.844c-6.834,0.01-13.668,0.08-20.457-0.865c-7.425-1.023-14.541-3.059-21.354-6.205
						c-7.857-3.627-14.824-8.479-21.029-14.551c-6.888-6.742-12.278-14.475-16.191-23.24c-3.049-6.822-4.963-13.986-5.828-21.41
						c-0.393-3.34-0.684-6.689-0.58-10.054c0.314-10.245,2.444-20.073,6.623-29.475c4.515-10.197,11.106-18.837,19.446-26.131
						c7.383-6.458,15.767-11.216,25.116-14.324C139.854,96.68,148.484,95.655,158.238,95.8"/>
					<path clip-path="url(#SVGID_44_)" fill="#050206" d="M154.331,206.461c-0.019,0.344-0.047,0.688-0.074,1.016
						c-0.383,0.355-0.864,0.301-1.325,0.338c-4.918,0.438-9.453,4.398-10.261,9.225c-1.246,7.406,3.334,13.133,9.779,14.186
						c0.6,0.1,1.252,0.012,1.797,0.408c0.183,0.609,0.246,1.02-0.68,1.094c-3.055,0.242-6.046-0.221-9.044-0.637
						c-7.998-1.129-15.51-3.855-22.299-8.09c-10.208-6.363-18.308-14.867-23.635-25.764c-3.9-7.998-6.08-16.424-6.321-25.359
						c-0.228-8.172,0.938-16.103,3.815-23.727c2.82-7.46,6.785-14.291,12.431-20.023c2.687-2.729,5.317-5.506,8.419-7.818
						c4.873-3.635,10.132-6.532,15.801-8.674c5.536-2.088,11.298-3.21,17.178-3.678c1.264-0.105,2.562,0.096,3.836,0.146
						c0.916,0.037,0.582,0.616,0.489,1.096c-0.29,0.265-0.653,0.294-1.018,0.316c-5.861,0.34-10.478,5.736-10.679,11.101
						c-0.226,6.415,4.363,11.518,10.379,12.377c0.455,0.063,0.945,0.02,1.336,0.35c0.056,1.311,1.236,0.549,1.773,0.977
						c-0.363,0.489-0.908,0.452-1.437,0.475c-6.298-0.31-12.169,1.24-17.559,4.39c-7.972,4.656-13.652,11.321-16.292,20.234
						c-3.435,11.544-1.675,22.367,5.703,31.947c6.673,8.67,15.706,13.148,26.647,13.703c0.364,0.018,0.727,0.027,1.063,0.209
						C154.213,206.342,154.275,206.395,154.331,206.461"/>
					<path clip-path="url(#SVGID_44_)" fill="#050206" d="M154.385,135.374c0.553-0.012,1.098-0.028,1.646-0.04
						c7.669,0.146,14.403,2.897,20.349,7.586c7.387,5.828,11.805,13.521,13.133,22.782c2.705,18.855-9.616,35.894-27.338,39.876
						c-2.583,0.574-5.189,0.965-7.843,0.883l0.035,0.045c-0.273-0.32-0.455-0.701-0.463-1.127
						c-0.019-3.656-0.228-7.318,0.118-10.969c0.3-0.811,1.026-0.756,1.699-0.803c13.241-0.814,22.675-12.578,20.746-25.86
						c-1.006-6.995-4.498-12.397-10.396-16.242c-3.117-2.037-6.615-2.91-10.287-3.226c-0.662-0.054-1.392,0.043-1.746-0.752
						c-0.381-3.671-0.144-7.349-0.135-11.021C153.911,136.073,154.093,135.688,154.385,135.374"/>
					<path clip-path="url(#SVGID_44_)" fill="#B94644" d="M154.247,231.633c-5.871,0.41-11.705-4.717-12.169-10.707
						c-0.499-6.533,3.064-11.549,9.408-13.285c0.927-0.254,1.835-0.199,2.761-0.156
						C154.376,215.539,154.402,223.582,154.247,231.633"/>
					<path clip-path="url(#SVGID_44_)" fill="#B94644" d="M154.257,134.355c-5.961,0.385-11.786-5.191-12.096-11.145
						c-0.363-7.037,4.598-11.838,9.46-12.858c0.884-0.188,1.738-0.231,2.617-0.144c0.029,4.024,0.083,8.046,0.093,12.074
						C154.339,126.309,154.284,130.333,154.257,134.355"/>
					<path clip-path="url(#SVGID_44_)" fill="#FFFFFF" d="M154.376,193.936c0,4.191,0,8.381-0.01,12.57
						c-7.427-0.037-14.287-2.037-20.339-6.352c-7.806-5.553-12.832-12.98-14.629-22.52c-1.828-9.712,0.038-18.668,5.487-26.78
						c4.123-6.126,9.732-10.613,16.693-13.262c4.126-1.563,8.371-2.499,12.806-2.212c0,4.196,0.008,8.391,0.008,12.584
						c0.029,0.183-0.037,0.314-0.199,0.404c-2.271,0.495-4.616,0.399-6.881,1.111c-8.923,2.826-15.185,11.396-15.357,20.738
						c-0.1,5.19,1.019,9.919,4.107,14.046c4.182,5.572,9.717,8.789,16.803,9.035c0.464,0.008,0.929-0.008,1.365,0.227
						C154.393,193.627,154.43,193.764,154.376,193.936"/>
					<path clip-path="url(#SVGID_44_)" fill="#B94644" d="M120.124,124.173c6.799,0.062,12.141,5.647,12.049,12.569
						c-0.082,6.417-5.847,12.104-12.284,11.978c-7.185-0.14-12.366-5.975-12.127-12.793
						C107.986,129.436,113.436,124.108,120.124,124.173"/>
					<path clip-path="url(#SVGID_44_)" fill="#B94644" d="M119.997,217.41c-6.549,0.236-12.222-5.197-12.423-11.887
						c-0.212-6.779,5.114-12.297,12.113-12.533c6.289-0.207,12.294,4.617,12.403,12.031
						C132.21,212.158,126.392,217.527,119.997,217.41"/>
					<path clip-path="url(#SVGID_44_)" fill="#B94644" d="M105.647,158.771c5.424-0.504,12.078,4.325,12.14,11.893
						c0.051,6.823-5.322,12.338-11.944,12.356c-6.681,0.029-12.025-5.217-12.364-11.447
						C93.049,163.684,100.076,158.156,105.647,158.771"/>
					<path clip-path="url(#SVGID_44_)" fill="#B94644" d="M154.355,148.106l-0.024-0.083l0.071-0.063
						c9.017-0.503,17.986,5.723,21.285,14.79c4.798,13.147-2.663,27.569-15.905,30.731c-1.771,0.428-3.58,0.637-5.397,0.455
						l-0.091-0.053l0.045-0.102c-0.51-0.672-0.491-1.455-0.491-2.227c-0.008-13.742-0.008-27.487,0-41.221
						C153.848,149.552,153.82,148.761,154.355,148.106"/>
					<path clip-path="url(#SVGID_44_)" fill="#050206" d="M154.355,148.106c-0.008,15.231-0.017,30.453-0.017,45.675
						c-4.553,0.174-8.769-1.01-12.522-3.518c-6.344-4.244-9.916-10.143-10.271-17.889c-0.218-4.804,0.526-9.354,3.162-13.421
						c4.454-6.875,10.688-10.716,19.031-10.785C153.948,148.161,154.146,148.128,154.355,148.106"/>
				</g>
			</g>
		</g>
	</g>
</g>
</svg>
